<svg preserveAspectRatio="none" overflow="visible" style="display: block;" width="122" height="150" viewBox="0 0 122 150" fill="none" xmlns="http://www.w3.org/2000/svg">
<path id="Vector" d="M61 32.7907C28.8111 32.7907 2.58306 59.103 2.58306 91.3954C2.58306 123.688 28.8111 150 61 150C93.1889 150 119.417 123.688 119.417 91.3954C119.417 59.103 93.1889 32.7907 61 32.7907ZM37.2557 3.0897C37.2557 1.89369 37.6531 0.89701 38.3485 0H5.06678C2.28502 0 0 2.29236 0 5.08306V31.0963C0 32.4917 0.596092 33.887 1.68893 34.8837L9.04072 41.4618C10.4316 42.6578 12.2199 43.0565 13.9088 42.5581C20.5651 36.0797 28.513 30.9967 37.2557 27.7076V3.0897ZM74.3127 3.0897C74.3127 1.89369 74.7101 0.89701 75.4055 0H46.2964C46.9919 0.89701 47.3893 1.89369 47.3893 3.0897V24.7176C51.7606 23.8206 56.3306 23.3223 61 23.3223C65.57 23.3223 70.0407 23.8206 74.3127 24.6179V3.0897ZM116.933 0H83.3534C84.0489 0.89701 84.4463 1.89369 84.4463 3.0897V27.5083C93.785 30.9967 102.13 36.4784 109.085 43.4551C110.376 43.4551 111.469 42.9568 112.363 42.0598L120.311 34.8837C121.404 33.887 122 32.4917 122 31.0963V5.08306C122 2.29236 119.715 0 116.933 0Z" fill="#2C2C2C"/>
</svg>
